<mxfile host="drawio-plugin" modified="2023-08-24T18:44:38.615Z" agent="5.0 (Windows NT 10.0; Win64; x64) AppleWebKit/537.36 (KHTML, like Gecko) Chrome/111.0.0.0 Safari/537.36" version="20.5.3" etag="F3HcVCVIqLTs7_Aa-bQg" type="embed"><diagram id="ltLau8s5XN1QO-7va0bq" name="Diagrama de Classes"><mxGraphModel dx="936" dy="539" grid="1" gridSize="10" guides="1" tooltips="1" connect="1" arrows="1" fold="1" page="1" pageScale="1" pageWidth="850" pageHeight="1100" math="0" shadow="0"><root><mxCell id="0"/><mxCell id="1" parent="0"/><mxCell id="2" value="Filme" style="swimlane;fontStyle=1;align=center;verticalAlign=top;childLayout=stackLayout;horizontal=1;startSize=26;horizontalStack=0;resizeParent=1;resizeParentMax=0;resizeLast=0;collapsible=1;marginBottom=0;" vertex="1" parent="1"><mxGeometry x="280" y="120" width="200" height="220" as="geometry"/></mxCell><mxCell id="3" value="+ nome: String&#10;+ anoDeLancamento: int&#10;+ incluidoNoPlano: boolean&#10;- somaDeavaliacao: double&#10;- totalDeAvaliacoes: int&#10;+ duracaoEmMinutos: int" style="text;strokeColor=none;fillColor=none;align=left;verticalAlign=top;spacingLeft=4;spacingRight=4;overflow=hidden;rotatable=0;points=[[0,0.5],[1,0.5]];portConstraint=eastwest;" vertex="1" parent="2"><mxGeometry y="26" width="200" height="94" as="geometry"/></mxCell><mxCell id="4" value="" style="line;strokeWidth=1;fillColor=none;align=left;verticalAlign=middle;spacingTop=-1;spacingLeft=3;spacingRight=3;rotatable=0;labelPosition=right;points=[];portConstraint=eastwest;strokeColor=inherit;" vertex="1" parent="2"><mxGeometry y="120" width="200" height="8" as="geometry"/></mxCell><mxCell id="5" value="+ exibeFicaTecnica(): void&#10;+ avalia(double): void&#10;+ pegaMedia(): double&#10;+ getSomaDeAvaliacoes(): double&#10;+ getTotalDeAvaliacoes(): int" style="text;strokeColor=none;fillColor=none;align=left;verticalAlign=top;spacingLeft=4;spacingRight=4;overflow=hidden;rotatable=0;points=[[0,0.5],[1,0.5]];portConstraint=eastwest;" vertex="1" parent="2"><mxGeometry y="128" width="200" height="92" as="geometry"/></mxCell></root></mxGraphModel></diagram></mxfile>